<svg xmlns="http://www.w3.org/2000/svg" xmlns:xlink="http://www.w3.org/1999/xlink" xml:space="preserve" id="Layer_1" width="24" height="24" x="0" y="0" viewBox="0 0 24 24"><defs><path id="SVGID_1_" d="M0 0h24v24H0Z"/></defs><clipPath id="SVGID_2_"><use xlink:href="#SVGID_1_" style="overflow:visible"/></clipPath><path d="M20 15.4c-1.2 0-2.4-.2-3.5-.6-.4-.1-.7 0-1 .2l-1.6 2c-2.8-1.4-5.5-3.9-6.9-6.8l2-1.7c.3-.3.4-.7.2-1-.4-1.1-.6-2.3-.6-3.5 0-.5-.5-1-1-1H4.2C3.7 3 3 3.2 3 4c0 9.3 7.7 17 17 17 .7 0 1-.6 1-1.2v-3.4c0-.6-.5-1-1-1" style="clip-path:url(#SVGID_2_)"/></svg>