<svg xmlns="http://www.w3.org/2000/svg" xmlns:xlink="http://www.w3.org/1999/xlink" xml:space="preserve" id="Layer_1" width="24" height="24" x="0" y="0" viewBox="0 0 24 24"><defs><path id="SVGID_1_" d="M0 0h24v24H0Z"/></defs><clipPath id="SVGID_2_"><use xlink:href="#SVGID_1_" style="overflow:visible"/></clipPath><path d="M3 17c0 .6.4 1 1 1h7c.6 0 1-.4 1-1s-.4-1-1-1H4c-.6 0-1 .4-1 1m0-5c0 .6.4 1 1 1h16c.6 0 1-.4 1-1s-.4-1-1-1H4c-.6 0-1 .4-1 1m1-6c-.6 0-1 .4-1 1s.4 1 1 1h11c.6 0 1-.4 1-1s-.4-1-1-1Z" style="clip-path:url(#SVGID_2_)"/></svg>