<svg xmlns="http://www.w3.org/2000/svg" xml:space="preserve" width="24" height="24" viewBox="0 0 24 24"><style>.st2{fill:#fff}</style><g id="Layer_2"><path d="M18.3 16H7.2c-.5 0-.9-.4-1-.9L4.8 5.8H2.9c-.5 0-1-.4-1-1s.4-1 1-1h2.8c.5 0 .9.4 1 .9L8 13.9h10.2c.6 0 1 .5 1 1 .1.6-.4 1.1-.9 1.1" class="st2"/><path d="M17.6 13H6.8c-.3 0-.5-.2-.5-.5s.2-.5.5-.5h10.4l1.3-5-10.1-.1c-.3 0-.5-.2-.5-.5s.2-.5.5-.5l10.7.1c.2 0 .3.1.4.2s.1.3.1.4l-1.5 6c-.1.3-.3.4-.5.4M9.9 19.8c-1 0-1.8-.8-1.8-1.8s.8-1.8 1.8-1.8 1.8.8 1.8 1.8-.9 1.8-1.8 1.8" class="st2"/><path d="M9.9 17.1c-.5 0-.9.4-.9.9 0 .4.4.8.8.8s.8-.4.8-.8c.1-.5-.3-.9-.7-.9M15.5 19.8c-1 0-1.8-.8-1.8-1.8s.8-1.8 1.8-1.8 1.8.8 1.8 1.8-.8 1.8-1.8 1.8" class="st2"/><path d="M15.5 17.1c-.4 0-.8.4-.8.8s.4.8.8.8.8-.4.8-.8-.4-.8-.8-.8" class="st2"/></g></svg>