<svg xmlns="http://www.w3.org/2000/svg" xml:space="preserve" id="Layer_1" width="16" height="16" x="0" y="0" viewBox="0 0 16 16"><circle cx="8" cy="8" r="7.5" style="fill:#fff"/><path d="M9.2 4.5c0 .6-.5 1.2-1.2 1.2s-1.2-.6-1.2-1.2S7.4 3.3 8 3.3s1.2.6 1.2 1.2"/><path d="M8 0C3.6 0 0 3.6 0 8s3.6 8 8 8 8-3.6 8-8-3.6-8-8-8M1 8c0-3.9 3.1-7 7-7 1.9 0 3.5 1.6 3.5 3.5S9.9 8 8 8s-3.5 1.6-3.5 3.5S6.1 15 8 15c-3.9 0-7-3.1-7-7m7 4.7c-.6 0-1.2-.5-1.2-1.2 0-.6.5-1.2 1.2-1.2.6 0 1.2.5 1.2 1.2 0 .6-.6 1.2-1.2 1.2"/></svg>