<?xml version="1.0" encoding="utf-8"?>
<!-- Generator: Adobe Adobe Illustrator 24.2.0, SVG Export Plug-In . SVG Version: 6.00 Build 0)  -->
<svg version="1.1" id="Layer_1" xmlns="http://www.w3.org/2000/svg" xmlns:xlink="http://www.w3.org/1999/xlink" x="0px" y="0px"
	 width="16px" height="16px" viewBox="0 0 16 16" style="enable-background:new 0 0 16 16;" xml:space="preserve">
<style type="text/css">
	.st0{fill:#FFFFFF;}
</style>
<circle class="st0" cx="8" cy="8" r="7.5"/>
<path d="M9.2,4.5c0,0.6-0.5,1.2-1.2,1.2S6.8,5.1,6.8,4.5S7.4,3.3,8,3.3S9.2,3.9,9.2,4.5"/>
<path d="M8,0C3.6,0,0,3.6,0,8s3.6,8,8,8s8-3.6,8-8S12.4,0,8,0 M1,8c0-3.9,3.1-7,7-7c1.9,0,3.5,1.6,3.5,3.5S9.9,8,8,8
	s-3.5,1.6-3.5,3.5S6.1,15,8,15C4.1,15,1,11.9,1,8 M8,12.7c-0.6,0-1.2-0.5-1.2-1.2c0-0.6,0.5-1.2,1.2-1.2c0,0,0,0,0,0
	c0.6,0,1.2,0.5,1.2,1.2C9.2,12.1,8.6,12.7,8,12.7"/>
</svg>
