<?xml version="1.0" encoding="utf-8"?>
<!-- Generator: Adobe Adobe Illustrator 24.2.0, SVG Export Plug-In . SVG Version: 6.00 Build 0)  -->
<svg version="1.1" xmlns="http://www.w3.org/2000/svg" xmlns:xlink="http://www.w3.org/1999/xlink" x="0px" y="0px" width="24px"
	 height="24px" viewBox="0 0 24 24" style="enable-background:new 0 0 24 24;" xml:space="preserve">
<style type="text/css">
	.st0{display:none;}
	.st1{display:inline;}
	.st2{fill:#FFFFFF;}
</style>
<g id="Layer_1" class="st0">
	<g class="st1">
		<g>
			<path d="M3,17c0,0.6,0.4,1,1,1h16c0.6,0,1-0.4,1-1s-0.4-1-1-1H4C3.4,16,3,16.4,3,17z M3,12c0,0.6,0.4,1,1,1h16c0.6,0,1-0.4,1-1
				s-0.4-1-1-1H4C3.4,11,3,11.4,3,12z M4,6C3.4,6,3,6.4,3,7s0.4,1,1,1h16c0.6,0,1-0.4,1-1s-0.4-1-1-1H4z"/>
		</g>
	</g>
</g>
<g id="Layer_2">
	<g>
		<path class="st2" d="M18.3,16C18.3,16,18.3,16,18.3,16l-11.1,0c-0.5,0-0.9-0.4-1-0.9L4.8,5.8l-1.9,0c0,0,0,0,0,0c-0.5,0-1-0.4-1-1
			c0-0.6,0.4-1,1-1l2.8,0c0,0,0,0,0,0c0.5,0,0.9,0.4,1,0.9L8,13.9l10.2,0c0.6,0,1,0.5,1,1C19.3,15.5,18.8,16,18.3,16z"/>
		<path class="st2" d="M17.6,13L17.6,13L6.8,13c-0.3,0-0.5-0.2-0.5-0.5c0-0.3,0.2-0.5,0.5-0.5c0,0,0,0,0,0l10.4,0l1.3-5L8.4,6.9
			c-0.3,0-0.5-0.2-0.5-0.5c0-0.3,0.2-0.5,0.5-0.5c0,0,0,0,0,0L19.1,6c0.2,0,0.3,0.1,0.4,0.2s0.1,0.3,0.1,0.4l-1.5,6
			C18,12.9,17.8,13,17.6,13z"/>
		<path class="st2" d="M9.9,19.8c-1,0-1.8-0.8-1.8-1.8s0.8-1.8,1.8-1.8s1.8,0.8,1.8,1.8S10.8,19.8,9.9,19.8z"/>
		<path class="st2" d="M9.9,17.1C9.4,17.1,9,17.5,9,18c0,0.4,0.4,0.8,0.8,0.8s0.8-0.4,0.8-0.8C10.7,17.5,10.3,17.1,9.9,17.1z"/>
		<path class="st2" d="M15.5,19.8c-1,0-1.8-0.8-1.8-1.8s0.8-1.8,1.8-1.8s1.8,0.8,1.8,1.8S16.5,19.8,15.5,19.8z"/>
		<path class="st2" d="M15.5,17.1c-0.4,0-0.8,0.4-0.8,0.8c0,0.4,0.4,0.8,0.8,0.8c0.4,0,0.8-0.4,0.8-0.8
			C16.3,17.5,15.9,17.1,15.5,17.1z"/>
	</g>
</g>
</svg>
