<?xml version="1.0" encoding="utf-8"?>
<!-- Generator: Adobe Adobe Illustrator 24.2.0, SVG Export Plug-In . SVG Version: 6.00 Build 0)  -->
<svg version="1.1" id="Layer_1" xmlns="http://www.w3.org/2000/svg" xmlns:xlink="http://www.w3.org/1999/xlink" x="0px" y="0px"
	 width="24px" height="24px" viewBox="0 0 24 24" style="enable-background:new 0 0 24 24;" xml:space="preserve">
<style type="text/css">
	.st0{clip-path:url(#SVGID_2_);}
</style>
<g>
	<defs>
		<rect id="SVGID_1_" width="24" height="24"/>
	</defs>
	<clipPath id="SVGID_2_">
		<use xlink:href="#SVGID_1_"  style="overflow:visible;"/>
	</clipPath>
	<g class="st0">
		<path d="M20,15.4c-1.2,0-2.4-0.2-3.5-0.6c-0.4-0.1-0.7,0-1,0.2l-1.6,2c-2.8-1.4-5.5-3.9-6.9-6.8L9,8.5c0.3-0.3,0.4-0.7,0.2-1
			C8.8,6.4,8.6,5.2,8.6,4c0-0.5-0.5-1-1-1H4.2C3.7,3,3,3.2,3,4c0,9.3,7.7,17,17,17c0.7,0,1-0.6,1-1.2v-3.4
			C21,15.8,20.5,15.4,20,15.4z"/>
	</g>
</g>
</svg>
